<svg width="42" height="42" viewBox="0 0 42 42" fill="none" xmlns="http://www.w3.org/2000/svg">
<path d="M29.0995 9.65787C30.0769 9.65787 31.0325 9.37481 31.8453 8.84447C32.6581 8.31413 33.2918 7.56031 33.6661 6.6783C34.0404 5.79628 34.1387 4.82566 33.9484 3.88912C33.7582 2.95257 33.288 2.09214 32.5972 1.41657C31.9065 0.741006 31.0262 0.280632 30.0676 0.0936367C29.1091 -0.0933582 28.1153 0.0014206 27.2119 0.365994C26.3085 0.730567 25.536 1.34857 24.992 2.14189C24.4481 2.93521 24.1572 3.86824 24.1559 4.82304C24.1559 6.10429 24.6766 7.33314 25.6035 8.23968C26.5304 9.14621 27.7878 9.65629 29.0995 9.65787Z" fill="#0D120E"/>
<path d="M37.2309 8.26457C34.3903 12.1467 30.5928 12.5992 26.5026 10.2235C26.2222 10.0627 24.9848 9.40183 24.7166 9.24107C18.1334 5.42441 11.5623 6.92487 7.15523 12.9505C5.28388 15.5168 9.61175 17.9461 11.4648 15.4096C13.7446 12.2956 16.64 11.3965 19.8036 12.3849C18.1821 15.1298 16.768 17.8628 14.7625 21.7449C12.7571 25.6271 8.34387 28.7292 4.10134 26.3059C1.03526 24.5553 -1.72604 28.8543 1.32785 30.5988C7.12475 33.9034 13.9213 31.873 17.3897 27.5741C17.5144 27.6368 17.6426 27.6925 17.7737 27.7408C20.6082 28.7054 24.3265 31.2717 25.4542 32.1827C26.5819 33.0937 28.5325 37.726 29.6845 40.0601C31.0865 42.8824 35.6094 40.8282 34.2074 37.988C32.8969 35.3444 30.7025 30.0689 28.9835 28.7352C27.612 27.6634 24.9422 25.6747 22.6807 24.5434C24.2087 21.6417 25.8098 18.7817 27.484 15.9634C32.8359 17.5651 37.9197 15.6776 41.5404 10.7237C43.4118 8.1574 39.0839 5.72808 37.2309 8.26457Z" fill="#0D120E"/>
</svg>
