<svg width="16" height="11" viewBox="0 0 16 11" fill="none" xmlns="http://www.w3.org/2000/svg">
<path d="M12.5713 0C13.2025 0 13.7139 0.511396 13.7139 1.14258V3.71387C13.7139 3.08275 14.2263 2.57129 14.8574 2.57129C15.4884 2.57143 15.9999 3.08284 16 3.71387V6.57129C15.9999 7.20232 15.4884 7.71372 14.8574 7.71387C14.2263 7.71387 13.7139 7.20241 13.7139 6.57129V9.14258C13.7139 9.77376 13.2025 10.2852 12.5713 10.2852C11.9402 10.2851 11.4287 9.7737 11.4287 9.14258V6.41992C11.3819 6.42511 11.3343 6.4287 11.2861 6.42871H4.71387C4.66566 6.42869 4.61812 6.42511 4.57129 6.41992V9.14258C4.57129 9.77371 4.05982 10.2851 3.42871 10.2852C2.79753 10.2852 2.28613 9.77376 2.28613 9.14258V6.57129C2.28606 7.20241 1.77371 7.71387 1.14258 7.71387C0.511571 7.71372 7.60466e-05 7.20231 0 6.57129V3.71387C7.47815e-05 3.08284 0.51157 2.57144 1.14258 2.57129C1.77371 2.57129 2.28606 3.08275 2.28613 3.71387V1.14258C2.28613 0.511396 2.79753 0 3.42871 0C4.05982 8.37649e-05 4.57129 0.511447 4.57129 1.14258V3.86426C4.61809 3.85908 4.66569 3.85646 4.71387 3.85645H11.2861C11.3343 3.85646 11.3819 3.85908 11.4287 3.86426V1.14258C11.4287 0.511453 11.9402 9.20118e-05 12.5713 0Z" fill="url(#paint0_linear_5403_3734)"/>
<defs>
<linearGradient id="paint0_linear_5403_3734" x1="16" y1="5.14258" x2="0" y2="5.14258" gradientUnits="userSpaceOnUse">
<stop stop-color="#C9FF6B"/>
<stop offset="1" stop-color="#FFED29"/>
</linearGradient>
</defs>
</svg>
