<svg width="180" height="31" viewBox="0 0 180 31" fill="none" xmlns="http://www.w3.org/2000/svg">
<path d="M48.7998 6.125C53.4998 6.125 56.1578 8.60141 56.4297 9.25879L56.9053 6.78223H62.7803L58.7793 29.499H53.2959L53.7715 27.1494C53.3788 27.9333 51.1484 30.0165 46.4502 30.0166C40.5753 30.0166 36.5383 25.6279 36.5381 18.9238C36.5381 11.9999 40.9665 6.125 48.7998 6.125ZM138.728 20.1787C138.544 21.384 138.704 22.334 139.205 23.0283C139.716 23.7226 140.517 24.0703 141.606 24.0703C142.31 24.0703 142.971 23.9159 143.588 23.6074C144.205 23.2892 144.726 22.8312 145.15 22.2334C145.584 21.6259 145.869 20.8924 146.004 20.0342L148.115 7.40625H155.175L151.472 29.625H144.73L145.411 25.4873H145.18C144.495 26.8469 143.487 27.9272 142.156 28.7275C140.825 29.5183 139.326 29.9141 137.657 29.9141C136.143 29.914 134.871 29.5664 133.839 28.8721C132.807 28.1777 132.074 27.2088 131.64 25.9648C131.215 24.7112 131.138 23.2453 131.408 21.5674L133.78 7.40625H140.854L138.728 20.1787ZM18.2695 18.3418H18.6172L29.1768 0H38.0439L33.126 29.625H26.1533L29.1768 11.4277H28.9307L18.834 29.4365H14.3936L10.2852 11.3262H10.0391L6.97266 29.625H0L4.91895 0H13.7861L18.2695 18.3418ZM77.501 7.10254C77.8288 7.10255 78.1566 7.1266 78.4844 7.1748C78.8219 7.21338 79.1405 7.27148 79.4395 7.34863L78.3975 13.5107C78.0696 13.3854 77.6407 13.2932 77.1104 13.2354C76.5801 13.1679 76.0979 13.1348 75.6641 13.1348C74.8251 13.1348 74.0435 13.3222 73.3203 13.6982C72.6068 14.0646 71.9995 14.5809 71.498 15.2461C71.0063 15.9018 70.6826 16.6734 70.5283 17.5605L68.5322 29.625H61.459L65.1621 7.40625H72.0332L71.3535 11.4561H71.585C72.231 9.99054 73.0749 8.90102 74.1162 8.1875C75.1577 7.46432 76.286 7.10254 77.501 7.10254ZM88.0459 15.3623H88.3389L95.9473 7.40625H103.961L94.4688 17.0938L98.166 24.6797C95.7505 25.2625 93.3459 25.8685 90.9531 26.5L88.5068 21.2256L86.7861 22.9453L85.9707 27.8555C83.9306 28.4269 81.8986 29.017 79.875 29.625H78.6045L83.5225 0H90.5957L88.0459 15.3623ZM100.576 29.625H92.6416C94.9927 28.6589 97.2121 27.7665 99.2734 26.9521L100.576 29.625ZM109.95 29.625H102.789L103.506 25.3018C106.612 24.1069 109.202 23.1452 111.147 22.4385L109.95 29.625ZM119.945 0C122.163 5.05145e-05 124.015 0.400821 125.5 1.20117C126.985 1.99189 128.041 3.12943 128.668 4.61426C129.295 6.08962 129.439 7.84026 129.102 9.86523C128.774 11.9093 128.041 13.6502 126.903 15.0869C125.782 16.5055 124.336 17.5911 122.566 18.3428L126.845 29.625H119.034L115.308 19.4844H111.641L111.257 21.7803C108.769 22.2834 106.292 22.8093 103.828 23.3613L105.409 13.8438H116.112C117.182 13.8437 118.109 13.7034 118.89 13.4238C119.67 13.1346 120.292 12.7004 120.755 12.1221C121.227 11.5338 121.541 10.7813 121.695 9.86523C121.84 8.94944 121.773 8.1925 121.493 7.59473C121.223 6.98725 120.745 6.53332 120.061 6.23438C119.386 5.92593 118.517 5.77151 117.457 5.77148H106.749L107.708 0H119.945ZM173.506 7.11719C175.058 7.11722 176.355 7.46404 177.396 8.1582C178.438 8.8525 179.176 9.82649 179.61 11.0801C180.044 12.324 180.116 13.7851 179.827 15.4629L177.454 29.625H170.381L172.508 16.8516C172.72 15.6273 172.57 14.6678 172.06 13.9736C171.558 13.2697 170.738 12.917 169.6 12.917C168.857 12.9171 168.178 13.0814 167.561 13.4092C166.953 13.7274 166.442 14.1854 166.027 14.7832C165.622 15.3811 165.348 16.1046 165.203 16.9531L163.091 29.625H156.018L159.721 7.40625H166.446L165.781 11.4854H166.027C166.722 10.1257 167.73 9.06051 169.051 8.28906C170.372 7.50799 171.857 7.11719 173.506 7.11719ZM51.3379 11.2168C46.6379 9.77441 43.4578 12.8123 42.3291 15.916C40.7626 20.2243 41.9381 23.3583 44.6797 24.9248C47.4215 26.4911 53.688 25.3157 54.8633 20.2246C56.0381 15.1333 54.471 12.1784 51.3379 11.2168Z" fill="url(#paint0_linear_5098_5770)"/>
<defs>
<linearGradient id="paint0_linear_5098_5770" x1="42.001" y1="35" x2="195.891" y2="27.0281" gradientUnits="userSpaceOnUse">
<stop/>
<stop offset="0.764423" stop-color="#A2F653"/>
<stop offset="1" stop-color="#FCFC73"/>
</linearGradient>
</defs>
</svg>
