<svg width="94" height="91" viewBox="0 0 94 91" fill="none" xmlns="http://www.w3.org/2000/svg">
<g opacity="0.3">
<g filter="url(#filter0_diiiiii_969_11941)">
<path d="M48.7292 19.3218C51.205 20.2645 53.8619 21.861 56.5021 23.7412C64.7678 29.6277 75.8246 29.9774 83.3255 23.1429L83.835 22.6787C84.7799 21.7949 86.2627 21.8441 87.147 22.7885L91.3676 27.2964C92.2519 28.2408 92.2028 29.7228 91.258 30.6066L77.6652 43.3209C76.0996 44.4619 72.7366 46.3197 68.9974 45.6698C63.6082 44.7329 63.491 42.508 59.1562 42.1567C58.078 42.0693 57.21 42.2428 56.5252 42.5635C53.7127 43.8806 55.4557 47.7465 57.9582 49.5856C58.1854 49.7525 58.4281 49.9301 58.6876 50.1196C64.5454 54.3984 70.6845 60.7525 72.7465 63.4693C75.7595 66.8573 78.3937 71.6523 79.7986 75.2523C79.9213 75.5667 80.089 75.8619 80.2107 76.1766L81.7685 80.2071C82.231 81.4035 81.6445 82.7493 80.453 83.2256L72.0874 86.5701C70.675 87.1348 69.1069 86.2253 68.8965 84.7194C68.7733 83.8367 68.5931 82.9612 68.2987 82.12C65.2535 73.4208 58.0617 66.2174 49.5577 62.2757C43.304 59.377 36.5398 63.2669 30.0486 65.5856C27.9416 66.3382 25.6717 66.7481 23.306 66.7481C17.5493 66.7481 12.3596 64.3211 8.70532 60.435C8.49081 60.2069 8.24324 60.0111 8.02176 59.7897L2.68629 54.4567C1.77124 53.5421 1.77124 52.0591 2.68629 51.1445L8.58947 45.2441C9.50451 44.3295 10.988 44.3296 11.9031 45.2441L17.2388 50.5773C18.2217 51.5598 19.2893 52.4657 20.3249 53.3955C20.9747 53.9789 21.9747 53.9254 22.5584 53.2759C26.5864 49.7683 30.8041 46.1382 34.9046 42.3909C35.0775 42.2181 35.3732 42.3314 35.3732 42.5758V45.0842C35.2561 47.6605 36.7895 48.246 38.5365 48.246C40.2835 48.246 41.6997 46.8304 41.6997 45.0842V32.2616C41.6997 31.3885 40.9916 30.6807 40.1181 30.6807C39.586 30.6807 39.0662 30.6807 38.5365 30.6807H28.871C26.235 30.6807 24.2433 31.6175 24.2433 33.9596C24.2433 36.3016 25.4148 37.7068 29.5739 37.7068C29.8494 37.7068 29.9755 38.0502 29.7654 38.2284L23.3456 43.6736C22.0548 44.7685 20.1537 44.7417 18.8943 43.6109L15.4545 40.5224C15.4534 40.5214 15.4534 40.5196 15.4546 40.5187C15.4557 40.5179 15.4559 40.5164 15.4551 40.5154C13.2303 37.3535 12.6452 32.202 15.105 27.0505C17.5653 21.8981 21.7613 19.5907 25.1805 18.7363C28.2981 17.9573 31.9252 17.9106 35.6075 17.9166C40.1873 17.9241 45.5659 18.1173 48.7292 19.3218Z" fill="url(#paint0_radial_969_11941)" fill-opacity="0.3" shape-rendering="crispEdges"/>
<path d="M65.5999 0C72.0703 0 77.3156 5.24283 77.3156 11.7102C77.3156 18.1776 72.0703 23.4204 65.5999 23.4204C59.1294 23.4204 53.8841 18.1775 53.8841 11.7102C53.8841 5.24285 59.1294 2.70426e-05 65.5999 0Z" fill="url(#paint1_radial_969_11941)" fill-opacity="0.3" shape-rendering="crispEdges"/>
<path d="M35.6064 18.417C37.8915 18.4207 40.3648 18.471 42.6562 18.6689C44.9558 18.8676 47.0355 19.2122 48.5508 19.7891C50.9693 20.7099 53.5868 22.2789 56.2119 24.1484C64.6308 30.1441 75.9545 30.5354 83.6621 23.5127L84.1719 23.0479L84.1768 23.0439C84.92 22.3488 86.0866 22.3871 86.7822 23.1299L91.0029 27.6377C91.6984 28.3805 91.6591 29.5461 90.916 30.2412L77.3467 42.9336C75.8103 44.0473 72.6037 45.7888 69.083 45.1768C66.4722 44.7229 65.1541 43.9657 63.9307 43.2607C62.6676 42.533 61.4762 41.843 59.1963 41.6582C58.0418 41.5647 57.0856 41.7489 56.3135 42.1104C55.4971 42.4926 54.9764 43.0819 54.7363 43.7988C54.5014 44.5005 54.5514 45.274 54.7686 46.0186C55.2007 47.5001 56.336 49.0137 57.6621 49.9883C57.8898 50.1556 58.133 50.3338 58.3926 50.5234C64.213 54.7748 70.3173 61.0951 72.3486 63.7715L72.3604 63.7871L72.373 63.8018C75.3377 67.1355 77.9443 71.8751 79.333 75.4336C79.402 75.6104 79.4827 75.7794 79.5537 75.9287C79.6273 76.0835 79.6912 76.2195 79.7441 76.3564L81.3018 80.3877C81.6653 81.3285 81.2048 82.387 80.2676 82.7617L71.9014 86.1055C70.7901 86.5495 69.5571 85.8344 69.3916 84.6504C69.2656 83.7477 69.0793 82.8374 68.7705 81.9551C65.6743 73.11 58.3755 65.8122 49.7676 61.8223C46.4882 60.3023 43.0978 60.5774 39.7598 61.4922C38.0911 61.9495 36.4212 62.5701 34.7734 63.2168C33.1174 63.8667 31.4938 64.5381 29.8809 65.1143C27.8271 65.8479 25.6133 66.248 23.3057 66.248C17.6926 66.2479 12.633 63.8825 9.06934 60.0928C8.94681 59.9625 8.81776 59.8446 8.70117 59.7393C8.58024 59.63 8.47452 59.536 8.375 59.4365L3.04004 54.1035C2.32036 53.3842 2.32036 52.2174 3.04004 51.498L8.94336 45.5977C9.66316 44.8785 10.8301 44.8783 11.5498 45.5977L16.8857 50.9307C17.8812 51.9257 18.9697 52.8503 19.9912 53.7676C20.8336 54.5237 22.1209 54.4651 22.8936 53.6465C26.7962 50.2481 30.8853 46.7262 34.873 43.0947V45.084C34.8149 46.4632 35.1975 47.4266 35.9443 48.0225C36.6655 48.5976 37.6266 48.746 38.5361 48.7461C40.5591 48.7461 42.2002 47.1065 42.2002 45.084V32.2617C42.2002 31.1123 41.2675 30.1807 40.1182 30.1807H28.8711C27.5072 30.1807 26.2408 30.4212 25.2998 31.0205C24.3273 31.64 23.7432 32.6196 23.7432 33.96C23.7432 35.2125 24.0595 36.328 25.0381 37.1035C25.9017 37.7879 27.2034 38.1401 29.0283 38.1973L23.0225 43.292C21.9224 44.2251 20.3019 44.2028 19.2285 43.2393L15.8486 40.2051C13.755 37.2093 13.1691 32.2657 15.5566 27.2656C17.939 22.2768 21.9934 20.0484 25.3018 19.2217C28.3497 18.4601 31.9152 18.411 35.6064 18.417ZM15.8594 40.8086C15.8521 40.8188 15.8451 40.8291 15.8369 40.8389C15.8451 40.8292 15.852 40.8188 15.8594 40.8086ZM15.9111 40.7178C15.9062 40.7293 15.9014 40.7408 15.8955 40.752C15.9014 40.7408 15.9061 40.7293 15.9111 40.7178ZM15.9395 40.6328C15.9379 40.6394 15.9363 40.6458 15.9346 40.6523C15.9364 40.6459 15.9379 40.6394 15.9395 40.6328ZM65.5996 0.5C71.794 0.5 76.8153 5.51907 76.8154 11.71C76.8154 17.901 71.7941 22.9199 65.5996 22.9199C59.4052 22.9198 54.3838 17.9009 54.3838 11.71C54.3839 5.71263 59.0964 0.815034 65.0225 0.514648L65.5996 0.5Z" stroke="white" stroke-opacity="0.8" shape-rendering="crispEdges"/>
</g>
</g>
<defs>
<filter id="filter0_diiiiii_969_11941" x="-8" y="-10" width="110" height="111.739" filterUnits="userSpaceOnUse" color-interpolation-filters="sRGB">
<feFlood flood-opacity="0" result="BackgroundImageFix"/>
<feColorMatrix in="SourceAlpha" type="matrix" values="0 0 0 0 0 0 0 0 0 0 0 0 0 0 0 0 0 0 127 0" result="hardAlpha"/>
<feOffset dy="2"/>
<feGaussianBlur stdDeviation="1"/>
<feComposite in2="hardAlpha" operator="out"/>
<feColorMatrix type="matrix" values="0 0 0 0 0.911828 0 0 0 0 0.911828 0 0 0 0 0.911828 0 0 0 1 0"/>
<feBlend mode="normal" in2="BackgroundImageFix" result="effect1_dropShadow_969_11941"/>
<feBlend mode="normal" in="SourceGraphic" in2="effect1_dropShadow_969_11941" result="shape"/>
<feColorMatrix in="SourceAlpha" type="matrix" values="0 0 0 0 0 0 0 0 0 0 0 0 0 0 0 0 0 0 127 0" result="hardAlpha"/>
<feOffset dx="10" dy="20"/>
<feGaussianBlur stdDeviation="7.5"/>
<feComposite in2="hardAlpha" operator="arithmetic" k2="-1" k3="1"/>
<feColorMatrix type="matrix" values="0 0 0 0 0 0 0 0 0 0 0 0 0 0 0 0 0 0 0.1 0"/>
<feBlend mode="normal" in2="shape" result="effect2_innerShadow_969_11941"/>
<feColorMatrix in="SourceAlpha" type="matrix" values="0 0 0 0 0 0 0 0 0 0 0 0 0 0 0 0 0 0 127 0" result="hardAlpha"/>
<feOffset dx="-10" dy="-10"/>
<feGaussianBlur stdDeviation="7.5"/>
<feComposite in2="hardAlpha" operator="arithmetic" k2="-1" k3="1"/>
<feColorMatrix type="matrix" values="0 0 0 0 0 0 0 0 0 0 0 0 0 0 0 0 0 0 0.03 0"/>
<feBlend mode="normal" in2="effect2_innerShadow_969_11941" result="effect3_innerShadow_969_11941"/>
<feColorMatrix in="SourceAlpha" type="matrix" values="0 0 0 0 0 0 0 0 0 0 0 0 0 0 0 0 0 0 127 0" result="hardAlpha"/>
<feMorphology radius="3" operator="erode" in="SourceAlpha" result="effect4_innerShadow_969_11941"/>
<feOffset dx="3" dy="5"/>
<feGaussianBlur stdDeviation="15"/>
<feComposite in2="hardAlpha" operator="arithmetic" k2="-1" k3="1"/>
<feColorMatrix type="matrix" values="0 0 0 0 1 0 0 0 0 1 0 0 0 0 1 0 0 0 1 0"/>
<feBlend mode="overlay" in2="effect3_innerShadow_969_11941" result="effect4_innerShadow_969_11941"/>
<feColorMatrix in="SourceAlpha" type="matrix" values="0 0 0 0 0 0 0 0 0 0 0 0 0 0 0 0 0 0 127 0" result="hardAlpha"/>
<feMorphology radius="3" operator="erode" in="SourceAlpha" result="effect5_innerShadow_969_11941"/>
<feOffset dx="-3" dy="-8"/>
<feGaussianBlur stdDeviation="5"/>
<feComposite in2="hardAlpha" operator="arithmetic" k2="-1" k3="1"/>
<feColorMatrix type="matrix" values="0 0 0 0 0 0 0 0 0 0 0 0 0 0 0 0 0 0 0.1 0"/>
<feBlend mode="soft-light" in2="effect4_innerShadow_969_11941" result="effect5_innerShadow_969_11941"/>
<feColorMatrix in="SourceAlpha" type="matrix" values="0 0 0 0 0 0 0 0 0 0 0 0 0 0 0 0 0 0 127 0" result="hardAlpha"/>
<feOffset dx="1" dy="1"/>
<feGaussianBlur stdDeviation="0.25"/>
<feComposite in2="hardAlpha" operator="arithmetic" k2="-1" k3="1"/>
<feColorMatrix type="matrix" values="0 0 0 0 1 0 0 0 0 1 0 0 0 0 1 0 0 0 0.8 0"/>
<feBlend mode="normal" in2="effect5_innerShadow_969_11941" result="effect6_innerShadow_969_11941"/>
<feColorMatrix in="SourceAlpha" type="matrix" values="0 0 0 0 0 0 0 0 0 0 0 0 0 0 0 0 0 0 127 0" result="hardAlpha"/>
<feOffset dx="-1" dy="-1"/>
<feGaussianBlur stdDeviation="0.25"/>
<feComposite in2="hardAlpha" operator="arithmetic" k2="-1" k3="1"/>
<feColorMatrix type="matrix" values="0 0 0 0 1 0 0 0 0 1 0 0 0 0 1 0 0 0 0.25 0"/>
<feBlend mode="normal" in2="effect6_innerShadow_969_11941" result="effect7_innerShadow_969_11941"/>
</filter>
<radialGradient id="paint0_radial_969_11941" cx="0" cy="0" r="1" gradientTransform="matrix(14.7618 -35.599 36.9373 15.3023 50.0179 47.6605)" gradientUnits="userSpaceOnUse">
<stop stop-color="white"/>
<stop offset="0.870192" stop-color="white" stop-opacity="0.64"/>
</radialGradient>
<radialGradient id="paint1_radial_969_11941" cx="0" cy="0" r="1" gradientTransform="matrix(14.7618 -35.599 36.9373 15.3023 50.0179 47.6605)" gradientUnits="userSpaceOnUse">
<stop stop-color="white"/>
<stop offset="0.870192" stop-color="white" stop-opacity="0.64"/>
</radialGradient>
</defs>
</svg>
